<svg data-v-0dd9719b="" version="1.0" xmlns="http://www.w3.org/2000/svg" xmlns:xlink="http://www.w3.org/1999/xlink" width="100%" height="100%" viewBox="0 0 340.000000 250.000000" preserveAspectRatio="xMidYMid meet" color-interpolation-filters="sRGB" style="margin: auto;">
  <rect data-v-0dd9719b="" x="0" y="0" width="100%" height="100%" fill="url(#watermark)" fill-opacity="1" class="watermarklayer"></rect>
  <g data-v-0dd9719b="" fill="#333" class="icon-text-wrapper icon-svg-group iconsvg" transform="translate(92.09500122070312,64.82745742797852)">
    <g class="iconsvg-imagesvg" transform="translate(38.904998779296875,0)">
      <g>
        <rect fill="#333" fill-opacity="0" stroke-width="2" x="0" y="0" width="78" height="77.9290845330749" class="image-rect"></rect>
        <svg x="0" y="0" width="78" height="77.9290845330749" filtersec="colorsb7542560280" class="image-svg-svg primary" style="overflow: visible;">
          <svg xmlns="http://www.w3.org/2000/svg" viewBox="-0.003759620478376746 0.003763117827475071 117.33048248291016 117.22412872314453">
            <title>资源 7</title>
            <path d="M10.39 25.65c1.75-3.65 4.6-6.47 7.44-9.21A57.16 57.16 0 0 1 40.64 2.79a59.07 59.07 0 0 1 56 11.12c2.76 2.29 2.76 2.32 1.12 5.47Q86.45 41 75.16 62.69c-.82 1.58-1.6 3.18-2.43 4.76-.28.53-.43 1.26-1.2 1.28s-1-.69-1.24-1.23c-2.51-4.78-5-9.56-7.52-14.36-3.77-7.22-7.48-14.46-11.25-21.67A26.43 26.43 0 0 0 50 29.14a21.32 21.32 0 0 0-6.38-7.36 23.15 23.15 0 0 0-28.48-.17c-1.67 1.26-2.83 3.09-4.75 4.04z" fill="#2cd6ff"></path>
            <path d="M106.86 91.51C105.72 94 103.79 96 102 98c-9.79 10.67-21.88 17.09-36.26 18.75A57.48 57.48 0 0 1 22 104.28c-4.06-3.21-4-3.31-1.69-7.81Q32.36 73.15 44.5 49.85c.28-.53.41-1.28 1.18-1.31s.92.75 1.19 1.26c4.54 8.7 9 17.44 13.62 26.1 2.18 4.1 3.95 8.43 6.71 12.2l.4.38a1.89 1.89 0 0 0 .52 1.36c7.6 10.63 21.68 14.16 32.88 6.5 2.14-1.44 3.76-3.42 5.86-4.83z" fill="#f859ff"></path>
            <path d="M43.63 21.78a23.15 23.15 0 0 0-28.48-.17c-1.68 1.26-2.84 3.09-4.76 4-.33 0-.54.21-.52.59-4.21 5.66-6.5 12.23-8.61 18.83A31 31 0 0 0 0 54.19c0 5.27-.11 10.54.86 15.72a55.64 55.64 0 0 0 6.23 17.21c1.82 3.21 1.88 3.2 3.77.12a11.75 11.75 0 0 0 .89-1.36c2.33-5.31 5.26-10.31 7.89-15.46 3.8-7.43 7.94-14.68 11.62-22.17C34 42.63 37 37.15 39.88 31.57c1.22-2.38 3.13-4.2 6.31-4 1.59.08 2.42 1.4 3.82 1.6a21.32 21.32 0 0 0-6.38-7.39z" fill="#3468ff"></path>
            <path d="M67.6 88.48l-.4-.38zM116.52 49.69a57.78 57.78 0 0 0-7.14-20.3c-1.39-2.35-1.83-2.29-3.16.21-.09.16-.15.33-.23.5-2.6 5.92-5.71 11.59-8.86 17.23-3.37 6-6.2 12.29-9.41 18.37-1.38 2.6-3 5.09-4.26 7.73-2.24 4.5-4.43 9-7 13.36a5.41 5.41 0 0 1-5 2.88 8.62 8.62 0 0 1-3.85-1.21 1.89 1.89 0 0 0 .52 1.36C75.72 100.47 89.8 104 101 96.34c2.1-1.44 3.72-3.42 5.82-4.83a.47.47 0 0 0 .11-.26l.31-.39c5.65-7.37 8.29-16 9.62-25a52.61 52.61 0 0 0-.34-16.17z" fill="#764ada"></path>
          </svg>
        </svg>
        <!---->
      </g>
    </g>
    <g transform="translate(0,84.92908477783203)">
      <g data-gra="path-name" fill-rule="" class="tp-name iconsvg-namesvg" transform="translate(0,0)">
        <g transform="scale(1)">
          <g>
            <path d="M0.36 0L5.34 0 6.43-7.88 6.37-11.69 6.48-11.72 7.65-7.76 11.02 0 16.06 0 18.81-19.7 13.86-19.7 12.61-10.77 12.66-7.37 12.55-7.35 11.44-11.3 7.85-19.7 3.12-19.7ZM26.3-15L34.98-15 35.65-19.7 21.93-19.7 19.17 0 32.89 0 33.53-4.7 24.85-4.7 25.27-7.65 33.25-7.65 33.87-12.08 25.88-12.08ZM34.9-3.28C36.4-0.92 39.32 0.28 41.69 0.28 45.94 0.28 49.28-1.64 50.01-5.48 50.92-10.38 47.59-11.69 44.16-12.33 42.66-12.66 41.66-13.16 41.8-14.3 41.91-15.31 42.97-15.78 44.22-15.75 45.36-15.72 46.67-15.28 47.5-14.33L51.12-16.84C49.42-19.31 47.2-19.98 44.8-19.98 41.19-19.98 37.62-18.56 36.87-14.53 36.18-10.8 38.96-8.32 42.05-7.82 43.63-7.6 45.36-7.07 45.14-5.84 44.94-4.81 43.77-4.34 42.44-4.34 40.96-4.34 39.32-4.98 38.46-6.23ZM67.93-15.17L68.6-19.73 52.93-19.73 52.26-15.17 57.58-15.17 55.49 0 60.53 0 62.61-15.17ZM74.88-15L83.57-15 84.23-19.7 70.52-19.7 67.76 0 81.48 0 82.12-4.7 73.44-4.7 73.85-7.65 81.84-7.65 82.45-12.08 74.47-12.08ZM89.24 0L94.22 0 95.03-5.76 98.18-5.76C102.94-5.76 105.69-8.88 106.11-12.61 106.5-16.17 104.69-19.7 99.87-19.7L92-19.7ZM95.64-10.18L96.34-15.05 99.23-15.05C100.68-15.05 101.32-14.05 101.15-12.75 100.99-11.41 100.1-10.16 98.54-10.18ZM106.47 0L119.49 0 120.16-4.93 112.15-4.93 114.23-19.7 109.22-19.7ZM133.82-19.7L129.29-19.7 119.66 0 125 0 126.76-3.95 132.02-3.95 132.77 0 138.11 0ZM128.51-8.38L130.68-14.14 130.87-14.14 131.46-8.38ZM146.51 0L147.6-7.76 156.17-19.7 150.33-19.7 145.76-12.77 143.2-19.7 137.41-19.7 142.62-7.76 141.53 0Z" transform="translate(-0.36000001430511475, 19.979999542236328)"></path>
          </g>
        </g>
      </g>
      <g data-gra="path-slogan" fill-rule="" class="tp-slogan iconsvg-slogansvg" fill="#333" transform="translate(9.324996948242188,27.260000228881836)">
        <!---->
        <!---->
        <g transform="scale(1, 1)">
          <g transform="scale(1)">
            <path d="M2.71 0L2.71-7.03L0.34-7.03L0.34-7.87L6.10-7.87L6.10-7.03L3.72-7.03L3.72 0L2.71 0ZM7.48-3.25L7.48-7.87L8.47-7.87L8.47-3.23Q8.47-2.52 8.62-2.04Q8.76-1.56 9.01-1.27Q9.25-0.98 9.59-0.86Q9.92-0.73 10.31-0.73L10.31-0.73Q10.70-0.73 11.04-0.86Q11.38-0.98 11.63-1.27Q11.88-1.56 12.02-2.04Q12.17-2.52 12.17-3.23L12.17-3.23L12.17-7.87L13.13-7.87L13.13-3.25Q13.13-2.30 12.91-1.66Q12.70-1.01 12.32-0.61Q11.94-0.20 11.42-0.03Q10.91 0.14 10.31 0.14L10.31 0.14Q9.71 0.14 9.19-0.03Q8.66-0.20 8.29-0.61Q7.91-1.01 7.69-1.66Q7.48-2.30 7.48-3.25L7.48-3.25ZM15.25 0L15.25-7.87L17.22-7.87Q19.04-7.87 19.99-6.86Q20.94-5.86 20.94-3.97L20.94-3.97Q20.94-3.04 20.70-2.30Q20.46-1.56 19.99-1.05Q19.52-0.54 18.84-0.27Q18.16 0 17.27 0L17.27 0L15.25 0ZM16.25-0.82L17.15-0.82Q18.53-0.82 19.22-1.64Q19.91-2.47 19.91-3.97L19.91-3.97Q19.91-5.47 19.22-6.26Q18.53-7.06 17.15-7.06L17.15-7.06L16.25-7.06L16.25-0.82ZM25.54 0.14L25.54 0.14Q24.79 0.14 24.17-0.14Q23.56-0.43 23.11-0.97Q22.67-1.50 22.42-2.26Q22.18-3.02 22.18-3.97L22.18-3.97Q22.18-4.92 22.42-5.67Q22.67-6.42 23.11-6.94Q23.56-7.46 24.17-7.74Q24.79-8.02 25.54-8.02L25.54-8.02Q26.28-8.02 26.90-7.73Q27.52-7.45 27.97-6.93Q28.42-6.41 28.66-5.66Q28.91-4.91 28.91-3.97L28.91-3.97Q28.91-3.02 28.66-2.26Q28.42-1.50 27.97-0.97Q27.52-0.43 26.90-0.14Q26.28 0.14 25.54 0.14ZM25.54-0.73L25.54-0.73Q26.06-0.73 26.49-0.96Q26.92-1.19 27.22-1.61Q27.53-2.04 27.70-2.63Q27.86-3.23 27.86-3.97L27.86-3.97Q27.86-4.70 27.70-5.29Q27.53-5.88 27.22-6.29Q26.92-6.70 26.49-6.92Q26.06-7.14 25.54-7.14L25.54-7.14Q25.01-7.14 24.58-6.92Q24.16-6.70 23.85-6.29Q23.54-5.88 23.38-5.29Q23.21-4.70 23.21-3.97L23.21-3.97Q23.21-3.23 23.38-2.63Q23.54-2.04 23.85-1.61Q24.16-1.19 24.58-0.96Q25.01-0.73 25.54-0.73ZM33.02 0L33.02-7.87L37.56-7.87L37.56-7.03L34.02-7.03L34.02-4.56L37.01-4.56L37.01-3.71L34.02-3.71L34.02-0.85L37.68-0.85L37.68 0L33.02 0ZM39.35 0L39.35-7.87L40.52-7.87L42.05-3.65L42.62-2.04L42.67-2.04L43.22-3.65L44.74-7.87L45.91-7.87L45.91 0L44.96 0L44.96-4.33Q44.96-4.86 45.01-5.50Q45.05-6.13 45.10-6.66L45.10-6.66L45.05-6.66L44.41-4.91L42.90-0.79L42.34-0.79L40.81-4.91L40.19-6.66L40.14-6.66Q40.18-6.13 40.22-5.50Q40.27-4.86 40.27-4.33L40.27-4.33L40.27 0L39.35 0ZM50.46-3.25L50.46-7.87L51.46-7.87L51.46-3.23Q51.46-2.52 51.60-2.04Q51.74-1.56 51.99-1.27Q52.24-0.98 52.57-0.86Q52.91-0.73 53.29-0.73L53.29-0.73Q53.69-0.73 54.02-0.86Q54.36-0.98 54.61-1.27Q54.86-1.56 55.01-2.04Q55.15-2.52 55.15-3.23L55.15-3.23L55.15-7.87L56.11-7.87L56.11-3.25Q56.11-2.30 55.90-1.66Q55.68-1.01 55.30-0.61Q54.92-0.20 54.41-0.03Q53.89 0.14 53.29 0.14L53.29 0.14Q52.69 0.14 52.17-0.03Q51.65-0.20 51.27-0.61Q50.89-1.01 50.68-1.66Q50.46-2.30 50.46-3.25L50.46-3.25ZM58.24 0L58.24-7.87L59.41-7.87L60.94-3.65L61.51-2.04L61.56-2.04L62.11-3.65L63.62-7.87L64.80-7.87L64.80 0L63.85 0L63.85-4.33Q63.85-4.86 63.89-5.50Q63.94-6.13 63.98-6.66L63.98-6.66L63.94-6.66L63.30-4.91L61.79-0.79L61.22-0.79L59.70-4.91L59.08-6.66L59.03-6.66Q59.06-6.13 59.11-5.50Q59.16-4.86 59.16-4.33L59.16-4.33L59.16 0L58.24 0ZM69.35-3.25L69.35-7.87L70.34-7.87L70.34-3.23Q70.34-2.52 70.49-2.04Q70.63-1.56 70.88-1.27Q71.12-0.98 71.46-0.86Q71.80-0.73 72.18-0.73L72.18-0.73Q72.58-0.73 72.91-0.86Q73.25-0.98 73.50-1.27Q73.75-1.56 73.90-2.04Q74.04-2.52 74.04-3.23L74.04-3.23L74.04-7.87L75.00-7.87L75.00-3.25Q75.00-2.30 74.78-1.66Q74.57-1.01 74.19-0.61Q73.81-0.20 73.30-0.03Q72.78 0.14 72.18 0.14L72.18 0.14Q71.58 0.14 71.06-0.03Q70.54-0.20 70.16-0.61Q69.78-1.01 69.56-1.66Q69.35-2.30 69.35-3.25L69.35-3.25ZM77.12 0L77.12-7.87L78.16-7.87L81.00-2.93L81.85-1.30L81.90-1.30Q81.86-1.90 81.82-2.54Q81.78-3.18 81.78-3.80L81.78-3.80L81.78-7.87L82.73-7.87L82.73 0L81.70 0L78.84-4.96L77.99-6.58L77.94-6.58Q77.99-5.98 78.03-5.36Q78.07-4.74 78.07-4.12L78.07-4.12L78.07 0L77.12 0ZM84.89 0L84.89-7.87L85.88-7.87L85.88 0L84.89 0ZM87.59-3.94L87.59-3.94Q87.59-4.88 87.85-5.64Q88.12-6.40 88.58-6.92Q89.05-7.45 89.69-7.73Q90.34-8.02 91.09-8.02L91.09-8.02Q91.81-8.02 92.35-7.72Q92.89-7.43 93.24-7.04L93.24-7.04L92.68-6.41Q92.36-6.74 91.99-6.94Q91.61-7.14 91.10-7.14L91.10-7.14Q90.54-7.14 90.08-6.92Q89.63-6.70 89.30-6.28Q88.98-5.87 88.80-5.28Q88.62-4.69 88.62-3.96L88.62-3.96Q88.62-3.22 88.79-2.62Q88.97-2.03 89.28-1.61Q89.59-1.19 90.04-0.96Q90.49-0.73 91.06-0.73L91.06-0.73Q91.63-0.73 92.06-0.96Q92.48-1.19 92.87-1.61L92.87-1.61L93.43-1.00Q92.96-0.46 92.38-0.16Q91.79 0.14 91.03 0.14L91.03 0.14Q90.29 0.14 89.66-0.13Q89.03-0.41 88.57-0.93Q88.10-1.45 87.85-2.21Q87.59-2.98 87.59-3.94ZM97.45 0.14L97.45 0.14Q96.71 0.14 96.09-0.14Q95.47-0.43 95.03-0.97Q94.58-1.50 94.34-2.26Q94.09-3.02 94.09-3.97L94.09-3.97Q94.09-4.92 94.34-5.67Q94.58-6.42 95.03-6.94Q95.47-7.46 96.09-7.74Q96.71-8.02 97.45-8.02L97.45-8.02Q98.20-8.02 98.81-7.73Q99.43-7.45 99.88-6.93Q100.33-6.41 100.58-5.66Q100.82-4.91 100.82-3.97L100.82-3.97Q100.82-3.02 100.58-2.26Q100.33-1.50 99.88-0.97Q99.43-0.43 98.81-0.14Q98.20 0.14 97.45 0.14ZM97.45-0.73L97.45-0.73Q97.98-0.73 98.41-0.96Q98.83-1.19 99.14-1.61Q99.44-2.04 99.61-2.63Q99.78-3.23 99.78-3.97L99.78-3.97Q99.78-4.70 99.61-5.29Q99.44-5.88 99.14-6.29Q98.83-6.70 98.41-6.92Q97.98-7.14 97.45-7.14L97.45-7.14Q96.92-7.14 96.50-6.92Q96.07-6.70 95.77-6.29Q95.46-5.88 95.29-5.29Q95.12-4.70 95.12-3.97L95.12-3.97Q95.12-3.23 95.29-2.63Q95.46-2.04 95.77-1.61Q96.07-1.19 96.50-0.96Q96.92-0.73 97.45-0.73ZM104.94 0L104.94-7.87L105.94-7.87L105.94-0.85L109.38-0.85L109.38 0L104.94 0ZM110.39-3.25L110.39-7.87L111.38-7.87L111.38-3.23Q111.38-2.52 111.53-2.04Q111.67-1.56 111.92-1.27Q112.16-0.98 112.50-0.86Q112.84-0.73 113.22-0.73L113.22-0.73Q113.62-0.73 113.95-0.86Q114.29-0.98 114.54-1.27Q114.79-1.56 114.94-2.04Q115.08-2.52 115.08-3.23L115.08-3.23L115.08-7.87L116.04-7.87L116.04-3.25Q116.04-2.30 115.82-1.66Q115.61-1.01 115.23-0.61Q114.85-0.20 114.34-0.03Q113.82 0.14 113.22 0.14L113.22 0.14Q112.62 0.14 112.10-0.03Q111.58-0.20 111.20-0.61Q110.82-1.01 110.60-1.66Q110.39-2.30 110.39-3.25L110.39-3.25ZM117.71-3.94L117.71-3.94Q117.71-4.88 117.98-5.64Q118.25-6.40 118.73-6.92Q119.22-7.45 119.88-7.73Q120.54-8.02 121.33-8.02L121.33-8.02Q122.15-8.02 122.69-7.71Q123.24-7.40 123.59-7.04L123.59-7.04L123.02-6.41Q122.72-6.72 122.33-6.93Q121.94-7.14 121.34-7.14L121.34-7.14Q120.74-7.14 120.26-6.92Q119.78-6.70 119.45-6.28Q119.11-5.87 118.93-5.28Q118.74-4.69 118.74-3.96L118.74-3.96Q118.74-3.22 118.91-2.62Q119.09-2.03 119.42-1.61Q119.75-1.19 120.23-0.96Q120.72-0.73 121.36-0.73L121.36-0.73Q121.78-0.73 122.15-0.86Q122.53-0.98 122.77-1.20L122.77-1.20L122.77-3.25L121.10-3.25L121.10-4.08L123.68-4.08L123.68-0.77Q123.30-0.37 122.67-0.11Q122.04 0.14 121.25 0.14L121.25 0.14Q120.47 0.14 119.82-0.13Q119.17-0.41 118.70-0.93Q118.24-1.45 117.97-2.21Q117.71-2.98 117.71-3.94ZM126.50-3.20L128.87-3.20L128.50-4.40Q128.28-5.06 128.09-5.72Q127.90-6.37 127.70-7.06L127.70-7.06L127.66-7.06Q127.48-6.37 127.28-5.72Q127.09-5.06 126.88-4.40L126.88-4.40L126.50-3.20ZM129.86 0L129.12-2.40L126.25-2.40L125.50 0L124.48 0L127.14-7.87L128.27-7.87L130.93 0L129.86 0ZM133.04-7.07L133.04-4.14L134.36-4.14Q135.29-4.14 135.78-4.52Q136.27-4.90 136.27-5.66L136.27-5.66Q136.27-6.44 135.78-6.76Q135.29-7.07 134.36-7.07L134.36-7.07L133.04-7.07ZM137.50 0L136.37 0L134.47-3.32L133.04-3.32L133.04 0L132.05 0L132.05-7.87L134.51-7.87Q135.11-7.87 135.62-7.76Q136.13-7.64 136.49-7.38Q136.86-7.12 137.06-6.70Q137.27-6.28 137.27-5.66L137.27-5.66Q137.27-4.74 136.79-4.19Q136.31-3.64 135.50-3.43L135.50-3.43L137.50 0Z" transform="translate(-0.336, 8.016)"></path>
          </g>
        </g>
      </g>
    </g>
  </g>
  <defs v-gra="od"></defs>
</svg>