<svg data-v-0dd9719b="" version="1.0" xmlns="http://www.w3.org/2000/svg" xmlns:xlink="http://www.w3.org/1999/xlink" width="100%" height="100%" viewBox="0 0 340.000000 250.000000" preserveAspectRatio="xMidYMid meet" color-interpolation-filters="sRGB" style="margin: auto;">
  <g data-v-0dd9719b="" fill="#333" class="icon-text-wrapper icon-svg-group iconsvg" transform="translate(92.09500122070312,64.82745742797852)">
    <g class="iconsvg-imagesvg" transform="translate(38.904998779296875,0)">
      <g>
        <svg x="0" y="0" width="88" height="90.9290845330749" filtersec="colorsb7542560280" class="image-svg-svg primary" style="overflow: visible;">
          <svg xmlns="http://www.w3.org/2000/svg" viewBox="-0.003759620478376746 0.003763117827475071 117.33048248291016 117.22412872314453">
            <title>资源 7</title>
            <path d="M10.39 25.65c1.75-3.65 4.6-6.47 7.44-9.21A57.16 57.16 0 0 1 40.64 2.79a59.07 59.07 0 0 1 56 11.12c2.76 2.29 2.76 2.32 1.12 5.47Q86.45 41 75.16 62.69c-.82 1.58-1.6 3.18-2.43 4.76-.28.53-.43 1.26-1.2 1.28s-1-.69-1.24-1.23c-2.51-4.78-5-9.56-7.52-14.36-3.77-7.22-7.48-14.46-11.25-21.67A26.43 26.43 0 0 0 50 29.14a21.32 21.32 0 0 0-6.38-7.36 23.15 23.15 0 0 0-28.48-.17c-1.67 1.26-2.83 3.09-4.75 4.04z" fill="#2cd6ff"></path>
            <path d="M106.86 91.51C105.72 94 103.79 96 102 98c-9.79 10.67-21.88 17.09-36.26 18.75A57.48 57.48 0 0 1 22 104.28c-4.06-3.21-4-3.31-1.69-7.81Q32.36 73.15 44.5 49.85c.28-.53.41-1.28 1.18-1.31s.92.75 1.19 1.26c4.54 8.7 9 17.44 13.62 26.1 2.18 4.1 3.95 8.43 6.71 12.2l.4.38a1.89 1.89 0 0 0 .52 1.36c7.6 10.63 21.68 14.16 32.88 6.5 2.14-1.44 3.76-3.42 5.86-4.83z" fill="#f859ff"></path>
            <path d="M43.63 21.78a23.15 23.15 0 0 0-28.48-.17c-1.68 1.26-2.84 3.09-4.76 4-.33 0-.54.21-.52.59-4.21 5.66-6.5 12.23-8.61 18.83A31 31 0 0 0 0 54.19c0 5.27-.11 10.54.86 15.72a55.64 55.64 0 0 0 6.23 17.21c1.82 3.21 1.88 3.2 3.77.12a11.75 11.75 0 0 0 .89-1.36c2.33-5.31 5.26-10.31 7.89-15.46 3.8-7.43 7.94-14.68 11.62-22.17C34 42.63 37 37.15 39.88 31.57c1.22-2.38 3.13-4.2 6.31-4 1.59.08 2.42 1.4 3.82 1.6a21.32 21.32 0 0 0-6.38-7.39z" fill="#3468ff"></path>
            <path d="M67.6 88.48l-.4-.38zM116.52 49.69a57.78 57.78 0 0 0-7.14-20.3c-1.39-2.35-1.83-2.29-3.16.21-.09.16-.15.33-.23.5-2.6 5.92-5.71 11.59-8.86 17.23-3.37 6-6.2 12.29-9.41 18.37-1.38 2.6-3 5.09-4.26 7.73-2.24 4.5-4.43 9-7 13.36a5.41 5.41 0 0 1-5 2.88 8.62 8.62 0 0 1-3.85-1.21 1.89 1.89 0 0 0 .52 1.36C75.72 100.47 89.8 104 101 96.34c2.1-1.44 3.72-3.42 5.82-4.83a.47.47 0 0 0 .11-.26l.31-.39c5.65-7.37 8.29-16 9.62-25a52.61 52.61 0 0 0-.34-16.17z" fill="#764ada"></path>
          </svg>
        </svg>
      </g>
    </g>
  </g>
  <defs v-gra="od"></defs>
</svg>